<svg width="19" height="20" viewBox="0 0 19 20" fill="none" xmlns="http://www.w3.org/2000/svg">
<path d="M8.70831 7.62498H10.2916V6.04165H8.70831M9.49998 16.3333C6.00873 16.3333 3.16665 13.4912 3.16665 9.99998C3.16665 6.50873 6.00873 3.66665 9.49998 3.66665C12.9912 3.66665 15.8333 6.50873 15.8333 9.99998C15.8333 13.4912 12.9912 16.3333 9.49998 16.3333ZM9.49998 2.08331C8.46035 2.08331 7.4309 2.28808 6.4704 2.68593C5.50991 3.08378 4.63718 3.66692 3.90205 4.40205C2.41739 5.88671 1.58331 7.90035 1.58331 9.99998C1.58331 12.0996 2.41739 14.1132 3.90205 15.5979C4.63718 16.333 5.50991 16.9162 6.4704 17.314C7.4309 17.7119 8.46035 17.9166 9.49998 17.9166C11.5996 17.9166 13.6132 17.0826 15.0979 15.5979C16.5826 14.1132 17.4166 12.0996 17.4166 9.99998C17.4166 8.96035 17.2119 7.9309 16.814 6.9704C16.4162 6.00991 15.833 5.13718 15.0979 4.40205C14.3628 3.66692 13.4901 3.08378 12.5296 2.68593C11.5691 2.28808 10.5396 2.08331 9.49998 2.08331ZM8.70831 13.9583H10.2916V9.20831H8.70831V13.9583Z" fill="black"/>
</svg>
